PathFileType	4	(X/Y/Z)	C:/Users/opensim2020/Desktop/walking_exp_matlab/subject01_walking13_straight_03.trc																																																																																																																												
DataRate	CameraRate	NumFrames	NumMarkers	Units	OrigDataRate	OrigDataStartFrame	OrigNumFrames																																																																																																																								
100	100	5	42	mm	100	1615	128																																																																																																																								
Frame#	Time	LFHD			RFHD			LBHD			RBHD			C7			T10			CLAV			STRN			RBAK			LSHO			LUPA			LELB			LFRM			LWRA			LWRB			LFIN			RSHO			RUPA			RELB			RFRM			RWRA			RWRB			RFIN			LASI			RASI			LPSI			RPSI			LTHI			LKNE			LTIB			LANK			LHEE			LTOE			RTHI			RKNE			RTIB			RANK			RHEE			RTOE			*39			*40			*41		
		X1	Y1	Z1	X2	Y2	Z2	X3	Y3	Z3	X4	Y4	Z4	X5	Y5	Z5	X6	Y6	Z6	X7	Y7	Z7	X8	Y8	Z8	X9	Y9	Z9	X10	Y10	Z10	X11	Y11	Z11	X12	Y12	Z12	X13	Y13	Z13	X14	Y14	Z14	X15	Y15	Z15	X16	Y16	Z16	X17	Y17	Z17	X18	Y18	Z18	X19	Y19	Z19	X20	Y20	Z20	X21	Y21	Z21	X22	Y22	Z22	X23	Y23	Z23	X24	Y24	Z24	X25	Y25	Z25	X26	Y26	Z26	X27	Y27	Z27	X28	Y28	Z28	X29	Y29	Z29	X30	Y30	Z30	X31	Y31	Z31	X32	Y32	Z32	X33	Y33	Z33	X34	Y34	Z34	X35	Y35	Z35	X36	Y36	Z36	X37	Y37	Z37	X38	Y38	Z38	X39	Y39	Z39	X40	Y40	Z40	X41	Y41	Z41	X42	Y42	Z42
																																																																																																																															
17	0.16	-560.94604	1657.99878	-1126.69421	-545.97058	1671.40308	-1015.26184	-668.47186	1596.15295	-1113.02771	-654.98938	1608.41089	-993.96832	-674.65466	1414.93103	-1060.71216	-712.09424	1124.13367	-1029.50281	-525.88287	1351.83984	-1053.64307	-483.43332	1196.6615	-1045.98401	-729.96851	1229.75073	-964.42926	-586.81171	1369.02124	-1216.04688	-632.47601	1186.15051	-1290.64209	-665.52002	1039.23328	-1284.0011	-645.9812	926.5625	-1303.7981	-588.16376	800.2782	-1278.88147	-642.81708	804.16431	-1304.63831	-607.62885	729.2168	-1314.84717	-592.47693	1388.1073	-904.19049	-662.13568	1204.72266	-786.96045	-663.25165	1078.54517	-766.21021	-591.71362	972.78357	-749.45569	-479.29166	898.35266	-793.28729	-511.5513	880.77252	-748.25366	-443.37424	835.35632	-752.45837	-527.72034	925.52832	-1127.69128	-543.35321	915.59766	-912.40936	-718.44849	932.19916	-1088.48914	-725.9809	932.21765	-944.08405	-487.93362	608.33582	-1193.22473	-467.35052	475.14841	-1175.93188	-498.43942	287.38876	-1193.177	-510.91403	68.82446	-1146.1731	-554.9472	37.71233	-1093.67761	-363.58005	35.15934	-1153.97473	-623.31097	579.78992	-851.51489	-641.54181	421.4361	-866.27106	-795.52405	331.95792	-864.14233	-950.35474	193.88089	-904.7312	-997.55261	216.40613	-958.03833	-932.25055	48.74076	-924.65924	-563.41479	1701.29321	-1038.87427	1972.82166	1024.72021	-3102.75537	2013.06921	1022.18079	-3138.61133
18	0.17	-548.61725	1658.98059	-1129.40405	-533.7146	1672.7439	-1018.10193	-656.32721	1597.3584	-1115.95703	-643.03125	1609.97717	-996.77319	-663.01056	1416.36023	-1063.29272	-700.94727	1125.45532	-1032.36047	-514.45319	1352.92053	-1055.31384	-472.1254	1197.69373	-1048.06055	-718.6557	1231.03503	-967.25952	-574.76526	1370.33264	-1218.21252	-619.02679	1187.53381	-1293.55029	-650.22131	1039.80054	-1287.70264	-627.84119	927.54932	-1307.49536	-566.6123	802.96954	-1282.59656	-621.24573	805.32837	-1308.50513	-583.80176	731.30029	-1318.52148	-581.1925	1389.28369	-906.55109	-651.96826	1206.16699	-789.29773	-655.13745	1079.83252	-769.59973	-586.36377	972.28845	-751.58258	-475.12262	894.99988	-793.80078	-508.26813	878.31714	-749.18732	-441.00705	831.15167	-752.5152	-516.89105	926.35693	-1130.24048	-532.32776	916.97638	-914.78479	-707.51038	933.1908	-1090.83093	-715.68231	932.685	-946.36737	-482.21179	607.57117	-1194.8457	-461.93744	474.54025	-1177.4856	-496.69266	287.25589	-1193.48596	-510.9516	68.78181	-1146.1167	-554.92029	37.6837	-1093.58032	-363.48148	35.13143	-1154.45251	-603.83838	578.88367	-853.93024	-617.96136	420.8067	-868.68793	-772.69409	334.39761	-864.7807	-931.07349	201.76332	-906.83405	-978.26709	225.33244	-960.41425	-917.06171	56.29366	-923.01984	-551.26556	1702.36157	-1042.16345	1972.85535	1024.14648	-3102.63818	NaN	NaN	NaN
19	0.18	-536.24005	1659.96912	-1132.09045	-521.54706	1673.95459	-1020.62366	-644.14197	1598.65918	-1118.61182	-631.0224	1611.34363	-999.56317	-651.04846	1417.65479	-1065.55139	-689.87555	1126.89685	-1035.21716	-503.00327	1353.99121	-1057.14563	-460.93802	1198.67261	-1050.03491	-707.54315	1232.33643	-970.20563	-562.72815	1371.59814	-1220.20129	-605.56781	1189.01221	-1296.36914	-635.06769	1040.51599	-1291.32092	-609.4306	928.69385	-1311.19006	-544.73633	806.14655	-1285.95044	-599.26892	806.76367	-1312.31567	-559.6496	734.41718	-1322.82239	-569.78015	1390.39331	-908.58282	-641.71802	1207.60046	-791.49451	-647.07501	1080.85632	-772.81708	-581.02173	971.8371	-753.59344	-470.89462	891.69537	-793.99158	-505.32425	875.79504	-750.05994	-439.1463	827.02393	-752.62274	-506.31622	927.05383	-1132.47266	-521.35382	918.61755	-916.76031	-696.71033	934.0658	-1093.08545	-704.33215	932.41064	-948.68427	-476.01053	607.23486	-1196.95654	-457.14005	473.88013	-1179.66553	-495.3049	286.95541	-1193.91296	-510.89102	68.8624	-1146.04541	-554.89655	37.7245	-1093.4978	-363.34241	34.80332	-1154.63672	-584.06921	578.76031	-856.27313	-594.27759	421.02515	-870.68378	-749.63165	336.49493	-865.9234	-912.23102	209.23537	-909.47009	-958.26215	232.22415	-964.42395	-898.97943	63.08966	-920.79529	-539.18195	1703.83765	-1044.55957	1972.97034	1023.95831	-3102.44922	2013.17358	1022.40863	-3138.28906
20	0.19	-523.79755	1660.96985	-1134.45679	-509.76096	1675.22839	-1023.21631	-631.81079	1599.953	-1121.0968	-618.97638	1612.95313	-1001.95746	-639.33313	1419.14954	-1067.72327	-679.02545	1128.44336	-1037.97327	-491.43622	1355.1001	-1059.42627	-449.94019	1199.55933	-1051.78418	-696.54871	1233.65491	-973.26233	-550.71191	1373.00647	-1222.04309	-592.24188	1190.677	-1299.29126	-620.0296	1041.30725	-1294.92761	-590.9505	930.0697	-1314.87939	-522.75323	809.3645	-1289.37549	-576.92926	808.57251	-1316.05261	-534.96191	737.77704	-1326.79895	-558.41321	1391.43201	-910.60193	-631.54749	1208.95544	-793.57599	-638.52026	1081.88708	-775.81714	-575.69501	971.26495	-755.60675	-467.34561	888.24939	-794.7948	-502.96756	873.3103	-751.03699	-437.48569	822.79218	-752.75641	-495.71463	927.80804	-1134.62183	-510.57895	920.30951	-918.50592	-686.16327	934.99628	-1095.11328	-693.67773	932.40546	-950.80798	-469.76071	606.84393	-1198.91833	-452.93649	473.06256	-1181.8009	-494.00311	286.56244	-1194.41113	-510.75586	68.83445	-1146.03711	-554.90265	37.90608	-1093.40039	-363.27048	34.59309	-1154.8822	-564.90485	579.77814	-858.24335	-571.03992	422.04474	-872.57556	-726.5741	338.85678	-867.4726	-891.30328	216.02097	-912.3844	-937.42206	237.49464	-968.82794	-878.44678	69.32569	-918.07556	-526.54626	1704.80994	-1047.34241	1972.75745	1024.61731	-3103.05225	2013.05371	1022.05988	-3138.46826
21	0.2	-511.35208	1662.0481	-1136.5603	-496.99274	1676.32202	-1025.15649	-619.48779	1601.32141	-1123.23291	-607.1853	1614.58264	-1004.35156	-627.43683	1420.55457	-1069.78711	-668.29828	1130.01074	-1040.71521	-480.0578	1356.09082	-1060.95789	-439.03503	1200.36438	-1053.56409	-685.55676	1234.9624	-976.35651	-538.7016	1374.48865	-1223.81335	-578.93945	1192.30298	-1301.74963	-605.14264	1042.276	-1298.62927	-572.40179	931.76483	-1318.63025	-500.07712	813.40326	-1293.41943	-554.29089	810.79651	-1319.76843	-509.9068	741.73022	-1330.72534	-547.55493	1392.37024	-912.37561	-621.35083	1210.23523	-795.69214	-629.76758	1082.86682	-778.64868	-570.27625	970.82703	-757.51947	-463.7374	884.87769	-794.9552	-499.83585	871.01135	-751.70752	-436.45065	818.67072	-752.9848	-485.25552	928.44348	-1136.65234	-499.62817	922.03113	-920.27057	-675.73706	935.78308	-1097.08997	-683.56073	932.74329	-952.77673	-464.2998	605.58441	-1200.34802	-448.81857	472.1124	-1183.51904	-492.38464	286.19745	-1195.05396	-510.57266	68.85858	-1145.88184	-554.75079	38.05275	-1093.3064	-362.93256	34.31285	-1155.11194	-545.95544	581.47992	-859.93158	-547.83588	423.77753	-874.55133	-703.89252	341.72971	-869.67865	-869.1524	220.90685	-915.6615	-915.22083	241.31177	-973.30292	-856.33545	74.69221	-916.35187	-513.92456	1705.97021	-1049.61194	1973.01868	1024.09802	-3102.32593	2013.08606	1022.12708	-3138.57813
